<svg xmlns="http://www.w3.org/2000/svg" xmlns:xlink="http://www.w3.org/1999/xlink" width="336" zoomAndPan="magnify" viewBox="0 0 252 143.999998" height="192" preserveAspectRatio="xMidYMid meet" version="1.2"><defs><clipPath id="e20e318a00"><path d="M 55 19.347656 L 167.734375 19.347656 L 167.734375 58.863281 L 55 58.863281 Z M 55 19.347656 "/></clipPath></defs><g id="f8e0cfb6a6"><g style="fill:#000000;fill-opacity:1;"><g transform="translate(24.709845, 106.01319)"><path style="stroke:none" d="M 24.234375 1.078125 C 19.890625 1.078125 15.671875 0.539062 11.578125 -0.53125 C 7.484375 -1.601562 4.160156 -3.035156 1.609375 -4.828125 L 6.59375 -16.03125 C 9 -14.4375 11.785156 -13.15625 14.953125 -12.1875 C 18.117188 -11.21875 21.238281 -10.734375 24.3125 -10.734375 C 30.132812 -10.734375 33.046875 -12.191406 33.046875 -15.109375 C 33.046875 -16.640625 32.210938 -17.773438 30.546875 -18.515625 C 28.890625 -19.253906 26.222656 -20.035156 22.546875 -20.859375 C 18.503906 -21.722656 15.128906 -22.648438 12.421875 -23.640625 C 9.710938 -24.640625 7.382812 -26.238281 5.4375 -28.4375 C 3.5 -30.632812 2.53125 -33.601562 2.53125 -37.34375 C 2.53125 -40.613281 3.421875 -43.5625 5.203125 -46.1875 C 6.992188 -48.820312 9.664062 -50.90625 13.21875 -52.4375 C 16.769531 -53.976562 21.128906 -54.75 26.296875 -54.75 C 29.828125 -54.75 33.300781 -54.347656 36.71875 -53.546875 C 40.144531 -52.753906 43.160156 -51.59375 45.765625 -50.0625 L 41.09375 -38.796875 C 35.976562 -41.554688 31.019531 -42.9375 26.21875 -42.9375 C 23.207031 -42.9375 21.007812 -42.488281 19.625 -41.59375 C 18.25 -40.695312 17.5625 -39.535156 17.5625 -38.109375 C 17.5625 -36.671875 18.378906 -35.59375 20.015625 -34.875 C 21.648438 -34.164062 24.28125 -33.425781 27.90625 -32.65625 C 32 -31.789062 35.382812 -30.859375 38.0625 -29.859375 C 40.75 -28.867188 43.078125 -27.285156 45.046875 -25.109375 C 47.015625 -22.929688 48 -19.976562 48 -16.25 C 48 -13.03125 47.101562 -10.117188 45.3125 -7.515625 C 43.519531 -4.910156 40.832031 -2.828125 37.25 -1.265625 C 33.675781 0.296875 29.335938 1.078125 24.234375 1.078125 Z M 24.234375 1.078125 "/></g></g><g style="fill:#000000;fill-opacity:1;"><g transform="translate(68.487258, 106.01319)"><path style="stroke:none" d="M 58.8125 -42.25 C 63.914062 -42.25 67.988281 -40.710938 71.03125 -37.640625 C 74.070312 -34.578125 75.59375 -29.953125 75.59375 -23.765625 L 75.59375 0 L 61.03125 0 L 61.03125 -21.390625 C 61.03125 -24.304688 60.476562 -26.453125 59.375 -27.828125 C 58.28125 -29.210938 56.738281 -29.90625 54.75 -29.90625 C 52.550781 -29.90625 50.785156 -29.132812 49.453125 -27.59375 C 48.117188 -26.0625 47.453125 -23.738281 47.453125 -20.625 L 47.453125 0 L 32.890625 0 L 32.890625 -21.390625 C 32.890625 -27.066406 30.796875 -29.90625 26.609375 -29.90625 C 24.359375 -29.90625 22.566406 -29.132812 21.234375 -27.59375 C 19.910156 -26.0625 19.25 -23.738281 19.25 -20.625 L 19.25 0 L 4.671875 0 L 4.671875 -41.5625 L 18.546875 -41.5625 L 18.546875 -37.1875 C 20.085938 -38.875 21.914062 -40.140625 24.03125 -40.984375 C 26.15625 -41.828125 28.46875 -42.25 30.96875 -42.25 C 33.882812 -42.25 36.492188 -41.710938 38.796875 -40.640625 C 41.097656 -39.566406 42.960938 -37.929688 44.390625 -35.734375 C 46.023438 -37.828125 48.09375 -39.4375 50.59375 -40.5625 C 53.101562 -41.6875 55.84375 -42.25 58.8125 -42.25 Z M 58.8125 -42.25 "/></g></g><g style="fill:#000000;fill-opacity:1;"><g transform="translate(142.77915, 106.01319)"><path style="stroke:none" d="M 22.390625 -42.25 C 29.285156 -42.25 34.546875 -40.675781 38.171875 -37.53125 C 41.804688 -34.382812 43.625 -29.566406 43.625 -23.078125 L 43.625 0 L 30.0625 0 L 30.0625 -5.359375 C 27.957031 -1.328125 23.863281 0.6875 17.78125 0.6875 C 14.5625 0.6875 11.773438 0.125 9.421875 -1 C 7.078125 -2.125 5.300781 -3.644531 4.09375 -5.5625 C 2.894531 -7.476562 2.296875 -9.660156 2.296875 -12.109375 C 2.296875 -16.046875 3.800781 -19.097656 6.8125 -21.265625 C 9.832031 -23.441406 14.488281 -24.53125 20.78125 -24.53125 L 29.0625 -24.53125 C 28.800781 -28.925781 25.859375 -31.125 20.234375 -31.125 C 18.242188 -31.125 16.226562 -30.804688 14.1875 -30.171875 C 12.144531 -29.535156 10.40625 -28.65625 8.96875 -27.53125 L 4.0625 -37.421875 C 6.363281 -38.953125 9.160156 -40.140625 12.453125 -40.984375 C 15.753906 -41.828125 19.066406 -42.25 22.390625 -42.25 Z M 21.84375 -8.515625 C 23.53125 -8.515625 25.015625 -8.921875 26.296875 -9.734375 C 27.578125 -10.554688 28.5 -11.757812 29.0625 -13.34375 L 29.0625 -16.9375 L 22.765625 -16.9375 C 18.523438 -16.9375 16.40625 -15.535156 16.40625 -12.734375 C 16.40625 -11.453125 16.890625 -10.425781 17.859375 -9.65625 C 18.835938 -8.894531 20.164062 -8.515625 21.84375 -8.515625 Z M 21.84375 -8.515625 "/></g></g><g style="fill:#000000;fill-opacity:1;"><g transform="translate(185.09984, 106.01319)"><path style="stroke:none" d="M 4.671875 -41.5625 L 19.25 -41.5625 L 19.25 0 L 4.671875 0 Z M 11.96875 -46.15625 C 9.3125 -46.15625 7.164062 -46.894531 5.53125 -48.375 C 3.894531 -49.863281 3.078125 -51.707031 3.078125 -53.90625 C 3.078125 -56.101562 3.894531 -57.941406 5.53125 -59.421875 C 7.164062 -60.898438 9.3125 -61.640625 11.96875 -61.640625 C 14.625 -61.640625 16.769531 -60.9375 18.40625 -59.53125 C 20.039062 -58.125 20.859375 -56.320312 20.859375 -54.125 C 20.859375 -51.832031 20.039062 -49.929688 18.40625 -48.421875 C 16.769531 -46.910156 14.625 -46.15625 11.96875 -46.15625 Z M 11.96875 -46.15625 "/></g></g><g style="fill:#000000;fill-opacity:1;"><g transform="translate(203.269616, 106.01319)"><path style="stroke:none" d="M 4.671875 -56.890625 L 19.25 -56.890625 L 19.25 0 L 4.671875 0 Z M 4.671875 -56.890625 "/></g></g><g clip-rule="nonzero" clip-path="url(#e20e318a00)"><path style=" stroke:none;fill-rule:nonzero;fill:#ffd230;fill-opacity:1;" d="M 164.824219 31.890625 C 164.773438 31.664062 164.726562 31.441406 164.667969 31.222656 L 164.472656 30.582031 C 164.371094 30.15625 164.179688 29.757812 164.050781 29.363281 C 163.707031 28.589844 163.34375 27.867188 162.90625 27.199219 C 162.453125 26.539062 161.980469 25.910156 161.425781 25.347656 C 160.320312 24.226562 159.027344 23.296875 157.488281 22.613281 L 157.203125 22.476562 L 156.902344 22.363281 C 156.703125 22.289062 156.5 22.203125 156.292969 22.128906 C 155.875 22.015625 155.445312 21.847656 154.996094 21.75 C 154.542969 21.632812 154.078125 21.546875 153.59375 21.464844 C 153.105469 21.386719 152.597656 21.328125 152.058594 21.265625 C 152.839844 20.511719 153.835938 20.003906 154.898438 19.6875 C 155.433594 19.523438 155.984375 19.457031 156.550781 19.382812 C 156.832031 19.347656 157.117188 19.359375 157.402344 19.355469 L 157.832031 19.355469 C 157.976562 19.359375 158.117188 19.382812 158.261719 19.394531 C 160.5625 19.605469 162.800781 20.730469 164.441406 22.425781 C 165.273438 23.269531 165.921875 24.273438 166.421875 25.332031 C 166.90625 26.40625 167.183594 27.558594 167.277344 28.703125 C 167.289062 28.988281 167.285156 29.277344 167.28125 29.5625 C 167.277344 29.703125 167.285156 29.84375 167.273438 29.988281 C 167.257812 30.128906 167.234375 30.269531 167.21875 30.410156 C 167.175781 30.691406 167.148438 30.96875 167.089844 31.242188 C 167.027344 31.515625 166.957031 31.785156 166.871094 32.050781 C 166.519531 33.105469 165.984375 34.082031 165.207031 34.839844 C 165.128906 33.761719 165.019531 32.796875 164.824219 31.890625 Z M 57.519531 31.890625 C 57.566406 31.664062 57.613281 31.441406 57.671875 31.222656 L 57.867188 30.582031 C 57.96875 30.15625 58.160156 29.757812 58.289062 29.363281 C 58.632812 28.589844 58.996094 27.867188 59.433594 27.199219 C 59.890625 26.539062 60.359375 25.910156 60.914062 25.347656 C 62.019531 24.226562 63.316406 23.296875 64.851562 22.613281 L 65.136719 22.476562 L 65.4375 22.363281 C 65.636719 22.289062 65.839844 22.203125 66.046875 22.128906 C 66.464844 22.015625 66.894531 21.847656 67.34375 21.75 C 67.792969 21.632812 68.261719 21.546875 68.75 21.464844 C 69.234375 21.386719 69.742188 21.328125 70.285156 21.265625 C 69.5 20.511719 68.503906 20.003906 67.441406 19.6875 C 66.90625 19.523438 66.355469 19.457031 65.789062 19.382812 C 65.507812 19.347656 65.226562 19.359375 64.9375 19.355469 L 64.507812 19.355469 C 64.363281 19.359375 64.222656 19.382812 64.078125 19.394531 C 61.777344 19.605469 59.539062 20.730469 57.898438 22.425781 C 57.070312 23.269531 56.417969 24.273438 55.917969 25.332031 C 55.433594 26.40625 55.160156 27.558594 55.0625 28.703125 C 55.050781 28.988281 55.058594 29.277344 55.058594 29.5625 C 55.0625 29.703125 55.058594 29.84375 55.070312 29.988281 C 55.082031 30.128906 55.105469 30.269531 55.121094 30.410156 C 55.164062 30.691406 55.191406 30.96875 55.25 31.242188 C 55.3125 31.515625 55.382812 31.785156 55.46875 32.050781 C 55.820312 33.105469 56.355469 34.082031 57.132812 34.839844 C 57.214844 33.761719 57.320312 32.796875 57.519531 31.890625 Z M 159.003906 24.425781 C 158.664062 24.894531 158.320312 25.367188 157.96875 25.832031 L 157.441406 26.53125 L 157.175781 26.882812 L 156.898438 27.21875 L 155.757812 28.554688 L 155.179688 29.222656 L 154.570312 29.855469 C 153.757812 30.703125 152.9375 31.554688 152.058594 32.339844 L 150.75 33.53125 C 150.300781 33.914062 149.839844 34.285156 149.386719 34.660156 C 148.199219 35.628906 143.164062 41.152344 142.859375 41.523438 C 142.558594 41.902344 142.25 42.273438 141.945312 42.652344 C 141.640625 43.027344 141.332031 43.40625 141.003906 43.757812 C 138.429688 46.664062 135.449219 49.253906 132.15625 51.433594 C 131.742188 51.703125 131.332031 51.980469 130.914062 52.242188 L 129.628906 52.988281 C 128.777344 53.5 127.878906 53.921875 126.988281 54.363281 C 125.203125 55.25 123.328125 55.945312 121.421875 56.578125 C 120.953125 56.753906 120.460938 56.859375 119.976562 56.992188 L 118.519531 57.378906 C 117.542969 57.585938 116.558594 57.785156 115.574219 57.964844 C 115.5625 57.964844 115.554688 57.96875 115.546875 57.96875 L 114.058594 58.152344 C 113.558594 58.207031 113.058594 58.296875 112.554688 58.3125 L 111.039062 58.398438 L 110.285156 58.445312 C 110.03125 58.453125 109.777344 58.445312 109.527344 58.445312 L 108.007812 58.414062 C 107.757812 58.40625 107.503906 58.410156 107.253906 58.390625 L 106.496094 58.328125 C 105.488281 58.234375 104.480469 58.179688 103.484375 57.988281 L 101.992188 57.738281 C 101.492188 57.660156 101.007812 57.519531 100.515625 57.410156 L 99.042969 57.0625 C 98.558594 56.933594 98.082031 56.761719 97.601562 56.613281 L 96.167969 56.148438 C 95.699219 55.972656 95.234375 55.78125 94.769531 55.597656 C 94.304688 55.410156 93.835938 55.226562 93.375 55.035156 C 92.925781 54.820312 92.476562 54.59375 92.03125 54.375 L 90.691406 53.714844 C 90.253906 53.476562 89.824219 53.222656 89.394531 52.972656 L 88.117188 52.210938 C 87.691406 51.957031 87.296875 51.660156 86.882812 51.386719 C 86.070312 50.828125 85.25 50.28125 84.496094 49.648438 L 83.347656 48.730469 L 82.777344 48.265625 C 82.589844 48.105469 82.414062 47.9375 82.234375 47.769531 C 81.523438 47.101562 80.792969 46.457031 80.105469 45.769531 L 78.121094 43.640625 L 77.886719 43.382812 C 77.878906 43.375 77.875 43.371094 77.867188 43.363281 L 77.648438 43.09375 L 77.1875 42.53125 C 76.886719 42.15625 70.886719 35.457031 69.734375 34.507812 L 69.046875 33.949219 L 68.707031 33.667969 L 68.378906 33.375 L 67.074219 32.183594 L 65.78125 30.988281 C 65.359375 30.582031 64.964844 30.144531 64.554688 29.722656 L 63.347656 28.449219 L 62.75 27.808594 L 62.183594 27.140625 C 62.175781 27.125 62.164062 27.113281 62.15625 27.101562 C 61.820312 26.691406 62.339844 26.144531 62.769531 26.453125 C 62.777344 26.460938 62.785156 26.46875 62.796875 26.472656 L 63.488281 26.992188 L 64.207031 27.476562 L 65.628906 28.449219 C 66.101562 28.773438 66.566406 29.105469 67.042969 29.421875 L 68.5 30.328125 L 69.941406 31.242188 L 70.289062 31.464844 C 70.296875 31.46875 70.300781 31.472656 70.308594 31.476562 L 70.671875 31.679688 L 71.414062 32.101562 C 75.332031 34.382812 79.371094 36.378906 83.550781 37.9375 C 91.890625 41.097656 100.6875 42.703125 109.507812 42.667969 C 118.320312 42.628906 127.148438 41.035156 135.519531 37.9375 C 143.90625 34.851562 151.808594 30.320312 159.003906 24.425781 "/></g></g></svg>