<svg xmlns="http://www.w3.org/2000/svg" xmlns:xlink="http://www.w3.org/1999/xlink" width="336" zoomAndPan="magnify" viewBox="0 0 252 143.999998" height="192" preserveAspectRatio="xMidYMid meet" version="1.2"><defs><clipPath id="8f22b6325b"><path d="M 55 19.347656 L 167.734375 19.347656 L 167.734375 58.863281 L 55 58.863281 Z M 55 19.347656 "/></clipPath></defs><g id="843d0d3062"><g style="fill:#ffffff;fill-opacity:1;"><g transform="translate(24.709845, 106.013195)"><path style="stroke:none" d="M 24.230469 3.949219 C 19.636719 3.949219 15.175781 3.382812 10.847656 2.246094 C 6.425781 1.085938 2.796875 -0.488281 -0.0390625 -2.476562 L -1.980469 -3.835938 L 5.347656 -20.292969 L 8.175781 -18.425781 C 10.351562 -16.992188 12.890625 -15.832031 15.792969 -14.941406 C 18.6875 -14.054688 21.527344 -13.609375 24.304688 -13.609375 C 26.769531 -13.609375 28.523438 -13.875 29.578125 -14.398438 C 29.851562 -14.535156 30.027344 -14.664062 30.109375 -14.789062 C 30.152344 -14.851562 30.171875 -14.957031 30.171875 -15.105469 C 30.171875 -15.246094 30.148438 -15.347656 30.101562 -15.414062 C 29.988281 -15.570312 29.75 -15.730469 29.382812 -15.890625 C 27.898438 -16.554688 25.410156 -17.273438 21.917969 -18.050781 C 17.761719 -18.945312 14.265625 -19.914062 11.429688 -20.957031 C 8.265625 -22.121094 5.550781 -23.980469 3.289062 -26.542969 C 0.867188 -29.285156 -0.34375 -32.882812 -0.34375 -37.339844 C -0.34375 -41.203125 0.714844 -44.695312 2.835938 -47.8125 C 4.9375 -50.910156 8.023438 -53.332031 12.085938 -55.085938 C 16.003906 -56.777344 20.742188 -57.621094 26.300781 -57.621094 C 30.046875 -57.621094 33.738281 -57.203125 37.375 -56.359375 C 41.085938 -55.5 44.375 -54.230469 47.234375 -52.546875 L 49.390625 -51.28125 L 42.535156 -34.753906 L 39.734375 -36.269531 C 35.046875 -38.796875 30.542969 -40.0625 26.222656 -40.0625 C 23.773438 -40.0625 22.097656 -39.769531 21.191406 -39.183594 C 20.878906 -38.980469 20.664062 -38.78125 20.550781 -38.585938 C 20.472656 -38.457031 20.433594 -38.296875 20.433594 -38.109375 C 20.433594 -38.039062 20.441406 -37.996094 20.460938 -37.972656 C 20.566406 -37.832031 20.800781 -37.679688 21.164062 -37.523438 C 22.621094 -36.886719 25.066406 -36.203125 28.503906 -35.476562 C 32.734375 -34.578125 36.257812 -33.605469 39.070312 -32.5625 C 42.195312 -31.402344 44.898438 -29.5625 47.179688 -27.042969 C 49.644531 -24.320312 50.875 -20.726562 50.875 -16.253906 C 50.875 -12.441406 49.8125 -8.984375 47.6875 -5.886719 C 45.585938 -2.828125 42.496094 -0.40625 38.414062 1.371094 C 34.46875 3.089844 29.742188 3.949219 24.230469 3.949219 Z M 24.230469 -1.800781 C 28.941406 -1.800781 32.90625 -2.5 36.117188 -3.902344 C 39.191406 -5.242188 41.46875 -6.988281 42.945312 -9.140625 C 44.398438 -11.257812 45.125 -13.628906 45.125 -16.253906 C 45.125 -19.246094 44.386719 -21.554688 42.917969 -23.179688 C 41.261719 -25.007812 39.3125 -26.335938 37.070312 -27.171875 C 34.515625 -28.117188 31.265625 -29.011719 27.316406 -29.851562 C 23.496094 -30.660156 20.675781 -31.460938 18.859375 -32.253906 C 17.585938 -32.8125 16.59375 -33.554688 15.886719 -34.488281 C 15.085938 -35.539062 14.683594 -36.746094 14.683594 -38.109375 C 14.683594 -39.351562 14.988281 -40.488281 15.605469 -41.523438 C 16.179688 -42.488281 17 -43.320312 18.066406 -44.011719 C 19.921875 -45.214844 22.640625 -45.816406 26.222656 -45.816406 C 31.511719 -45.816406 36.925781 -44.320312 42.464844 -41.328125 L 41.097656 -38.796875 L 38.441406 -39.902344 L 43.121094 -51.171875 L 45.777344 -50.070312 L 44.316406 -47.589844 C 41.964844 -48.976562 39.21875 -50.03125 36.082031 -50.757812 C 32.867188 -51.5 29.609375 -51.871094 26.300781 -51.871094 C 21.535156 -51.871094 17.554688 -51.183594 14.367188 -49.808594 C 11.324219 -48.496094 9.066406 -46.753906 7.59375 -44.582031 C 6.132812 -42.4375 5.40625 -40.023438 5.40625 -37.339844 C 5.40625 -34.335938 6.136719 -32.003906 7.597656 -30.351562 C 9.222656 -28.515625 11.160156 -27.183594 13.414062 -26.355469 C 15.996094 -25.402344 19.246094 -24.507812 23.167969 -23.664062 C 27.035156 -22.804688 29.890625 -21.964844 31.726562 -21.144531 C 33.023438 -20.566406 34.03125 -19.785156 34.746094 -18.804688 C 35.53125 -17.730469 35.921875 -16.496094 35.921875 -15.105469 C 35.921875 -13.796875 35.582031 -12.628906 34.894531 -11.597656 C 34.246094 -10.628906 33.332031 -9.847656 32.148438 -9.253906 C 30.285156 -8.324219 27.671875 -7.859375 24.304688 -7.859375 C 20.953125 -7.859375 17.554688 -8.386719 14.109375 -9.441406 C 10.675781 -10.496094 7.644531 -11.886719 5.011719 -13.625 L 6.59375 -16.027344 L 9.222656 -14.855469 L 4.238281 -3.660156 L 1.609375 -4.832031 L 3.257812 -7.1875 C 5.535156 -5.59375 8.550781 -4.304688 12.308594 -3.316406 C 16.160156 -2.308594 20.132812 -1.800781 24.230469 -1.800781 Z M 24.230469 -1.800781 "/></g></g><g style="fill:#ffffff;fill-opacity:1;"><g transform="translate(68.487258, 106.013195)"><path style="stroke:none" d="M 58.8125 -45.125 C 64.722656 -45.125 69.480469 -43.308594 73.082031 -39.671875 C 76.679688 -36.046875 78.480469 -30.746094 78.480469 -23.769531 L 78.480469 2.875 L 58.160156 2.875 L 58.160156 -21.394531 C 58.160156 -23.636719 57.820312 -25.1875 57.136719 -26.042969 C 56.613281 -26.699219 55.816406 -27.027344 54.746094 -27.027344 C 53.425781 -27.027344 52.386719 -26.59375 51.628906 -25.71875 C 50.769531 -24.726562 50.339844 -23.027344 50.339844 -20.625 L 50.339844 2.875 L 30.019531 2.875 L 30.019531 -21.394531 C 30.019531 -23.597656 29.683594 -25.15625 29.007812 -26.066406 C 28.535156 -26.707031 27.734375 -27.027344 26.605469 -27.027344 C 25.234375 -27.027344 24.167969 -26.59375 23.414062 -25.71875 C 22.550781 -24.726562 22.121094 -23.027344 22.121094 -20.625 L 22.121094 2.875 L 1.800781 2.875 L 1.800781 -44.433594 L 21.429688 -44.433594 L 21.429688 -37.1875 L 18.554688 -37.1875 L 16.429688 -39.121094 C 18.261719 -41.136719 20.441406 -42.648438 22.976562 -43.65625 C 25.4375 -44.636719 28.105469 -45.125 30.976562 -45.125 C 34.316406 -45.125 37.328125 -44.496094 40.015625 -43.246094 C 42.8125 -41.9375 45.074219 -39.957031 46.804688 -37.300781 L 44.394531 -35.730469 L 42.128906 -37.5 C 44.058594 -39.972656 46.492188 -41.867188 49.429688 -43.183594 C 52.308594 -44.476562 55.4375 -45.125 58.8125 -45.125 Z M 58.8125 -39.375 C 56.257812 -39.375 53.914062 -38.894531 51.785156 -37.9375 C 49.714844 -37.007812 48.007812 -35.683594 46.664062 -33.960938 L 44.183594 -30.785156 L 41.984375 -34.164062 C 40.855469 -35.902344 39.386719 -37.191406 37.582031 -38.03125 C 35.667969 -38.925781 33.464844 -39.375 30.976562 -39.375 C 28.839844 -39.375 26.882812 -39.019531 25.101562 -38.3125 C 23.390625 -37.632812 21.917969 -36.613281 20.683594 -35.253906 L 15.679688 -29.75 L 15.679688 -41.558594 L 18.554688 -41.558594 L 18.554688 -38.683594 L 4.675781 -38.683594 L 4.675781 -41.558594 L 7.554688 -41.558594 L 7.554688 0 L 4.675781 0 L 4.675781 -2.875 L 19.246094 -2.875 L 19.246094 0 L 16.371094 0 L 16.371094 -20.625 C 16.371094 -24.460938 17.269531 -27.414062 19.066406 -29.488281 C 20.96875 -31.683594 23.480469 -32.78125 26.605469 -32.78125 C 29.671875 -32.78125 32.011719 -31.679688 33.636719 -29.484375 C 35.058594 -27.558594 35.769531 -24.859375 35.769531 -21.394531 L 35.769531 0 L 32.894531 0 L 32.894531 -2.875 L 47.464844 -2.875 L 47.464844 0 L 44.585938 0 L 44.585938 -20.625 C 44.585938 -24.460938 45.484375 -27.414062 47.285156 -29.488281 C 49.1875 -31.683594 51.675781 -32.78125 54.746094 -32.78125 C 57.664062 -32.78125 59.960938 -31.726562 61.636719 -29.625 C 63.152344 -27.722656 63.910156 -24.976562 63.910156 -21.394531 L 63.910156 0 L 61.035156 0 L 61.035156 -2.875 L 75.605469 -2.875 L 75.605469 0 L 72.726562 0 L 72.726562 -23.769531 C 72.726562 -29.164062 71.484375 -33.117188 69 -35.625 C 66.519531 -38.125 63.125 -39.375 58.8125 -39.375 Z M 58.8125 -39.375 "/></g></g><g style="fill:#ffffff;fill-opacity:1;"><g transform="translate(142.77915, 106.013195)"><path style="stroke:none" d="M 22.390625 -45.125 C 30.003906 -45.125 35.898438 -43.320312 40.066406 -39.707031 C 44.359375 -35.988281 46.503906 -30.449219 46.503906 -23.078125 L 46.503906 2.875 L 27.183594 2.875 L 27.183594 -5.367188 L 30.058594 -5.367188 L 32.609375 -4.042969 C 31.273438 -1.464844 29.300781 0.464844 26.691406 1.753906 C 24.246094 2.960938 21.277344 3.566406 17.789062 3.566406 C 14.132812 3.566406 10.933594 2.910156 8.191406 1.597656 C 5.335938 0.234375 3.164062 -1.644531 1.664062 -4.03125 C 0.171875 -6.414062 -0.574219 -9.109375 -0.574219 -12.113281 C -0.574219 -14.53125 -0.0976562 -16.703125 0.851562 -18.628906 C 1.816406 -20.585938 3.25 -22.246094 5.144531 -23.609375 C 8.660156 -26.144531 13.875 -27.414062 20.78125 -27.414062 L 29.0625 -27.414062 L 29.0625 -24.535156 L 26.191406 -24.371094 C 26.113281 -25.679688 25.699219 -26.613281 24.941406 -27.179688 C 23.984375 -27.898438 22.417969 -28.253906 20.242188 -28.253906 C 18.542969 -28.253906 16.808594 -27.980469 15.042969 -27.429688 C 13.335938 -26.894531 11.902344 -26.171875 10.746094 -25.265625 L 7.96875 -23.082031 L 0.363281 -38.40625 L 2.46875 -39.8125 C 5.039062 -41.527344 8.132812 -42.84375 11.746094 -43.769531 C 15.277344 -44.671875 18.824219 -45.125 22.390625 -45.125 Z M 22.390625 -39.375 C 19.308594 -39.375 16.234375 -38.980469 13.171875 -38.199219 C 10.191406 -37.4375 7.6875 -36.378906 5.660156 -35.027344 L 4.0625 -37.417969 L 6.640625 -38.695312 L 11.546875 -28.804688 L 8.972656 -27.527344 L 7.195312 -29.789062 C 8.902344 -31.128906 10.945312 -32.171875 13.328125 -32.917969 C 15.652344 -33.644531 17.957031 -34.007812 20.242188 -34.007812 C 23.691406 -34.007812 26.40625 -33.265625 28.386719 -31.785156 C 30.570312 -30.152344 31.75 -27.792969 31.929688 -24.703125 L 32.109375 -21.660156 L 20.78125 -21.660156 C 15.109375 -21.660156 11.019531 -20.753906 8.503906 -18.945312 C 7.382812 -18.136719 6.550781 -17.183594 6.007812 -16.085938 C 5.453125 -14.957031 5.175781 -13.636719 5.175781 -12.113281 C 5.175781 -10.210938 5.628906 -8.535156 6.539062 -7.085938 C 7.445312 -5.640625 8.824219 -4.476562 10.671875 -3.589844 C 12.632812 -2.652344 15.003906 -2.183594 17.789062 -2.183594 C 20.382812 -2.183594 22.5 -2.589844 24.144531 -3.402344 C 25.625 -4.132812 26.746094 -5.230469 27.503906 -6.691406 L 32.933594 -5.367188 L 32.933594 0 L 30.058594 0 L 30.058594 -2.875 L 43.628906 -2.875 L 43.628906 0 L 40.753906 0 L 40.753906 -23.078125 C 40.753906 -28.695312 39.269531 -32.789062 36.300781 -35.359375 C 33.214844 -38.035156 28.574219 -39.375 22.390625 -39.375 Z M 21.851562 -11.386719 C 22.980469 -11.386719 23.945312 -11.644531 24.75 -12.160156 C 25.472656 -12.625 26.007812 -13.339844 26.351562 -14.304688 L 29.0625 -13.34375 L 26.183594 -13.34375 L 26.183594 -16.945312 L 29.0625 -16.945312 L 29.0625 -14.070312 L 22.773438 -14.070312 C 21.230469 -14.070312 20.167969 -13.878906 19.589844 -13.496094 C 19.484375 -13.425781 19.410156 -13.351562 19.375 -13.28125 C 19.316406 -13.160156 19.285156 -12.976562 19.285156 -12.726562 C 19.285156 -12.378906 19.40625 -12.109375 19.648438 -11.917969 C 20.097656 -11.5625 20.832031 -11.386719 21.851562 -11.386719 Z M 21.851562 -5.636719 C 19.5 -5.636719 17.578125 -6.226562 16.082031 -7.40625 C 14.382812 -8.746094 13.535156 -10.519531 13.535156 -12.726562 C 13.535156 -13.886719 13.769531 -14.933594 14.238281 -15.867188 C 14.730469 -16.847656 15.457031 -17.65625 16.410156 -18.289062 C 17.953125 -19.308594 20.074219 -19.820312 22.773438 -19.820312 L 31.9375 -19.820312 L 31.9375 -12.847656 L 31.769531 -12.378906 C 30.988281 -10.175781 29.683594 -8.488281 27.851562 -7.316406 C 26.101562 -6.195312 24.101562 -5.636719 21.851562 -5.636719 Z M 21.851562 -5.636719 "/></g></g><g style="fill:#ffffff;fill-opacity:1;"><g transform="translate(185.09984, 106.013195)"><path style="stroke:none" d="M 4.675781 -44.433594 L 22.121094 -44.433594 L 22.121094 2.875 L 1.800781 2.875 L 1.800781 -44.433594 Z M 4.675781 -38.683594 L 4.675781 -41.558594 L 7.554688 -41.558594 L 7.554688 0 L 4.675781 0 L 4.675781 -2.875 L 19.246094 -2.875 L 19.246094 0 L 16.371094 0 L 16.371094 -41.558594 L 19.246094 -41.558594 L 19.246094 -38.683594 Z M 11.960938 -43.285156 C 8.5625 -43.285156 5.773438 -44.273438 3.589844 -46.253906 C 1.324219 -48.304688 0.191406 -50.855469 0.191406 -53.902344 C 0.191406 -56.953125 1.324219 -59.503906 3.589844 -61.554688 C 5.773438 -63.535156 8.5625 -64.523438 11.960938 -64.523438 C 15.332031 -64.523438 18.101562 -63.589844 20.277344 -61.71875 C 22.578125 -59.742188 23.730469 -57.210938 23.730469 -54.132812 C 23.730469 -50.992188 22.605469 -48.382812 20.351562 -46.308594 C 18.164062 -44.292969 15.367188 -43.285156 11.960938 -43.285156 Z M 11.960938 -49.035156 C 13.871094 -49.035156 15.367188 -49.535156 16.453125 -50.535156 C 17.472656 -51.472656 17.980469 -52.671875 17.980469 -54.132812 C 17.980469 -55.453125 17.496094 -56.527344 16.527344 -57.359375 C 15.429688 -58.300781 13.910156 -58.773438 11.960938 -58.773438 C 10.042969 -58.773438 8.539062 -58.28125 7.453125 -57.292969 C 6.445312 -56.382812 5.941406 -55.253906 5.941406 -53.902344 C 5.941406 -52.554688 6.445312 -51.425781 7.453125 -50.515625 C 8.539062 -49.527344 10.042969 -49.035156 11.960938 -49.035156 Z M 11.960938 -49.035156 "/></g></g><g style="fill:#ffffff;fill-opacity:1;"><g transform="translate(203.269616, 106.013195)"><path style="stroke:none" d="M 1.800781 -59.769531 L 22.121094 -59.769531 L 22.121094 2.875 L 1.800781 2.875 Z M 7.554688 -54.019531 L 7.554688 -2.875 L 16.371094 -2.875 L 16.371094 -54.019531 Z M 7.554688 -54.019531 "/></g></g><g style="fill:#000000;fill-opacity:1;"><g transform="translate(24.709845, 106.013195)"><path style="stroke:none" d="M 24.234375 1.078125 C 19.890625 1.078125 15.671875 0.539062 11.578125 -0.53125 C 7.484375 -1.601562 4.160156 -3.035156 1.609375 -4.828125 L 6.59375 -16.03125 C 9 -14.4375 11.785156 -13.15625 14.953125 -12.1875 C 18.117188 -11.21875 21.238281 -10.734375 24.3125 -10.734375 C 30.132812 -10.734375 33.046875 -12.191406 33.046875 -15.109375 C 33.046875 -16.640625 32.210938 -17.773438 30.546875 -18.515625 C 28.890625 -19.253906 26.222656 -20.035156 22.546875 -20.859375 C 18.503906 -21.722656 15.128906 -22.648438 12.421875 -23.640625 C 9.710938 -24.640625 7.382812 -26.238281 5.4375 -28.4375 C 3.5 -30.632812 2.53125 -33.601562 2.53125 -37.34375 C 2.53125 -40.613281 3.421875 -43.5625 5.203125 -46.1875 C 6.992188 -48.820312 9.664062 -50.90625 13.21875 -52.4375 C 16.769531 -53.976562 21.128906 -54.75 26.296875 -54.75 C 29.828125 -54.75 33.300781 -54.347656 36.71875 -53.546875 C 40.144531 -52.753906 43.160156 -51.59375 45.765625 -50.0625 L 41.09375 -38.796875 C 35.976562 -41.554688 31.019531 -42.9375 26.21875 -42.9375 C 23.207031 -42.9375 21.007812 -42.488281 19.625 -41.59375 C 18.25 -40.695312 17.5625 -39.535156 17.5625 -38.109375 C 17.5625 -36.671875 18.378906 -35.59375 20.015625 -34.875 C 21.648438 -34.164062 24.28125 -33.425781 27.90625 -32.65625 C 32 -31.789062 35.382812 -30.859375 38.0625 -29.859375 C 40.75 -28.867188 43.078125 -27.285156 45.046875 -25.109375 C 47.015625 -22.929688 48 -19.976562 48 -16.25 C 48 -13.03125 47.101562 -10.117188 45.3125 -7.515625 C 43.519531 -4.910156 40.832031 -2.828125 37.25 -1.265625 C 33.675781 0.296875 29.335938 1.078125 24.234375 1.078125 Z M 24.234375 1.078125 "/></g></g><g style="fill:#000000;fill-opacity:1;"><g transform="translate(68.487258, 106.013195)"><path style="stroke:none" d="M 58.8125 -42.25 C 63.914062 -42.25 67.988281 -40.710938 71.03125 -37.640625 C 74.070312 -34.578125 75.59375 -29.953125 75.59375 -23.765625 L 75.59375 0 L 61.03125 0 L 61.03125 -21.390625 C 61.03125 -24.304688 60.476562 -26.453125 59.375 -27.828125 C 58.28125 -29.210938 56.738281 -29.90625 54.75 -29.90625 C 52.550781 -29.90625 50.785156 -29.132812 49.453125 -27.59375 C 48.117188 -26.0625 47.453125 -23.738281 47.453125 -20.625 L 47.453125 0 L 32.890625 0 L 32.890625 -21.390625 C 32.890625 -27.066406 30.796875 -29.90625 26.609375 -29.90625 C 24.359375 -29.90625 22.566406 -29.132812 21.234375 -27.59375 C 19.910156 -26.0625 19.25 -23.738281 19.25 -20.625 L 19.25 0 L 4.671875 0 L 4.671875 -41.5625 L 18.546875 -41.5625 L 18.546875 -37.1875 C 20.085938 -38.875 21.914062 -40.140625 24.03125 -40.984375 C 26.15625 -41.828125 28.46875 -42.25 30.96875 -42.25 C 33.882812 -42.25 36.492188 -41.710938 38.796875 -40.640625 C 41.097656 -39.566406 42.960938 -37.929688 44.390625 -35.734375 C 46.023438 -37.828125 48.09375 -39.4375 50.59375 -40.5625 C 53.101562 -41.6875 55.84375 -42.25 58.8125 -42.25 Z M 58.8125 -42.25 "/></g></g><g style="fill:#000000;fill-opacity:1;"><g transform="translate(142.77915, 106.013195)"><path style="stroke:none" d="M 22.390625 -42.25 C 29.285156 -42.25 34.546875 -40.675781 38.171875 -37.53125 C 41.804688 -34.382812 43.625 -29.566406 43.625 -23.078125 L 43.625 0 L 30.0625 0 L 30.0625 -5.359375 C 27.957031 -1.328125 23.863281 0.6875 17.78125 0.6875 C 14.5625 0.6875 11.773438 0.125 9.421875 -1 C 7.078125 -2.125 5.300781 -3.644531 4.09375 -5.5625 C 2.894531 -7.476562 2.296875 -9.660156 2.296875 -12.109375 C 2.296875 -16.046875 3.800781 -19.097656 6.8125 -21.265625 C 9.832031 -23.441406 14.488281 -24.53125 20.78125 -24.53125 L 29.0625 -24.53125 C 28.800781 -28.925781 25.859375 -31.125 20.234375 -31.125 C 18.242188 -31.125 16.226562 -30.804688 14.1875 -30.171875 C 12.144531 -29.535156 10.40625 -28.65625 8.96875 -27.53125 L 4.0625 -37.421875 C 6.363281 -38.953125 9.160156 -40.140625 12.453125 -40.984375 C 15.753906 -41.828125 19.066406 -42.25 22.390625 -42.25 Z M 21.84375 -8.515625 C 23.53125 -8.515625 25.015625 -8.921875 26.296875 -9.734375 C 27.578125 -10.554688 28.5 -11.757812 29.0625 -13.34375 L 29.0625 -16.9375 L 22.765625 -16.9375 C 18.523438 -16.9375 16.40625 -15.535156 16.40625 -12.734375 C 16.40625 -11.453125 16.890625 -10.425781 17.859375 -9.65625 C 18.835938 -8.894531 20.164062 -8.515625 21.84375 -8.515625 Z M 21.84375 -8.515625 "/></g></g><g style="fill:#000000;fill-opacity:1;"><g transform="translate(185.09984, 106.013195)"><path style="stroke:none" d="M 4.671875 -41.5625 L 19.25 -41.5625 L 19.25 0 L 4.671875 0 Z M 11.96875 -46.15625 C 9.3125 -46.15625 7.164062 -46.894531 5.53125 -48.375 C 3.894531 -49.863281 3.078125 -51.707031 3.078125 -53.90625 C 3.078125 -56.101562 3.894531 -57.941406 5.53125 -59.421875 C 7.164062 -60.898438 9.3125 -61.640625 11.96875 -61.640625 C 14.625 -61.640625 16.769531 -60.9375 18.40625 -59.53125 C 20.039062 -58.125 20.859375 -56.320312 20.859375 -54.125 C 20.859375 -51.832031 20.039062 -49.929688 18.40625 -48.421875 C 16.769531 -46.910156 14.625 -46.15625 11.96875 -46.15625 Z M 11.96875 -46.15625 "/></g></g><g style="fill:#000000;fill-opacity:1;"><g transform="translate(203.269616, 106.013195)"><path style="stroke:none" d="M 4.671875 -56.890625 L 19.25 -56.890625 L 19.25 0 L 4.671875 0 Z M 4.671875 -56.890625 "/></g></g><g clip-rule="nonzero" clip-path="url(#8f22b6325b)"><path style=" stroke:none;fill-rule:nonzero;fill:#ffd230;fill-opacity:1;" d="M 164.824219 31.890625 C 164.773438 31.664062 164.726562 31.441406 164.667969 31.222656 L 164.472656 30.582031 C 164.371094 30.15625 164.179688 29.757812 164.050781 29.363281 C 163.707031 28.589844 163.34375 27.867188 162.90625 27.199219 C 162.453125 26.539062 161.980469 25.910156 161.425781 25.347656 C 160.320312 24.226562 159.027344 23.296875 157.488281 22.613281 L 157.203125 22.476562 L 156.902344 22.363281 C 156.703125 22.289062 156.5 22.203125 156.292969 22.128906 C 155.875 22.015625 155.445312 21.847656 154.996094 21.75 C 154.542969 21.632812 154.078125 21.546875 153.59375 21.464844 C 153.105469 21.386719 152.597656 21.328125 152.058594 21.265625 C 152.839844 20.511719 153.835938 20.003906 154.898438 19.6875 C 155.433594 19.523438 155.984375 19.457031 156.550781 19.382812 C 156.832031 19.347656 157.117188 19.359375 157.402344 19.355469 L 157.832031 19.355469 C 157.976562 19.359375 158.117188 19.382812 158.261719 19.394531 C 160.5625 19.605469 162.800781 20.730469 164.441406 22.425781 C 165.273438 23.269531 165.921875 24.273438 166.421875 25.332031 C 166.90625 26.40625 167.183594 27.558594 167.277344 28.703125 C 167.289062 28.988281 167.285156 29.277344 167.28125 29.5625 C 167.277344 29.703125 167.285156 29.84375 167.273438 29.988281 C 167.257812 30.128906 167.234375 30.269531 167.21875 30.410156 C 167.175781 30.691406 167.148438 30.96875 167.089844 31.242188 C 167.027344 31.515625 166.957031 31.785156 166.871094 32.050781 C 166.519531 33.105469 165.984375 34.082031 165.207031 34.839844 C 165.128906 33.761719 165.019531 32.796875 164.824219 31.890625 Z M 57.519531 31.890625 C 57.566406 31.664062 57.613281 31.441406 57.671875 31.222656 L 57.867188 30.582031 C 57.96875 30.15625 58.160156 29.757812 58.289062 29.363281 C 58.632812 28.589844 58.996094 27.867188 59.433594 27.199219 C 59.890625 26.539062 60.359375 25.910156 60.914062 25.347656 C 62.019531 24.226562 63.316406 23.296875 64.851562 22.613281 L 65.136719 22.476562 L 65.4375 22.363281 C 65.636719 22.289062 65.839844 22.203125 66.046875 22.128906 C 66.464844 22.015625 66.894531 21.847656 67.34375 21.75 C 67.792969 21.632812 68.261719 21.546875 68.75 21.464844 C 69.234375 21.386719 69.742188 21.328125 70.285156 21.265625 C 69.5 20.511719 68.503906 20.003906 67.441406 19.6875 C 66.90625 19.523438 66.355469 19.457031 65.789062 19.382812 C 65.507812 19.347656 65.226562 19.359375 64.9375 19.355469 L 64.507812 19.355469 C 64.363281 19.359375 64.222656 19.382812 64.078125 19.394531 C 61.777344 19.605469 59.539062 20.730469 57.898438 22.425781 C 57.070312 23.269531 56.417969 24.273438 55.917969 25.332031 C 55.433594 26.40625 55.160156 27.558594 55.0625 28.703125 C 55.050781 28.988281 55.058594 29.277344 55.058594 29.5625 C 55.0625 29.703125 55.058594 29.84375 55.070312 29.988281 C 55.082031 30.128906 55.105469 30.269531 55.121094 30.410156 C 55.164062 30.691406 55.191406 30.96875 55.25 31.242188 C 55.3125 31.515625 55.382812 31.785156 55.46875 32.050781 C 55.820312 33.105469 56.355469 34.082031 57.132812 34.839844 C 57.214844 33.761719 57.320312 32.796875 57.519531 31.890625 Z M 159.003906 24.425781 C 158.664062 24.894531 158.320312 25.367188 157.96875 25.832031 L 157.441406 26.53125 L 157.175781 26.882812 L 156.898438 27.21875 L 155.757812 28.554688 L 155.179688 29.222656 L 154.570312 29.855469 C 153.757812 30.703125 152.9375 31.554688 152.058594 32.339844 L 150.75 33.53125 C 150.300781 33.914062 149.839844 34.285156 149.386719 34.660156 C 148.199219 35.628906 143.164062 41.152344 142.859375 41.523438 C 142.558594 41.902344 142.25 42.273438 141.945312 42.652344 C 141.640625 43.027344 141.332031 43.40625 141.003906 43.757812 C 138.429688 46.664062 135.449219 49.253906 132.15625 51.433594 C 131.742188 51.703125 131.332031 51.980469 130.914062 52.242188 L 129.628906 52.988281 C 128.777344 53.5 127.878906 53.921875 126.988281 54.363281 C 125.203125 55.25 123.328125 55.945312 121.421875 56.578125 C 120.953125 56.753906 120.460938 56.859375 119.976562 56.992188 L 118.519531 57.378906 C 117.542969 57.585938 116.558594 57.785156 115.574219 57.964844 C 115.5625 57.964844 115.554688 57.96875 115.546875 57.96875 L 114.058594 58.152344 C 113.558594 58.207031 113.058594 58.296875 112.554688 58.3125 L 111.039062 58.398438 L 110.285156 58.445312 C 110.03125 58.453125 109.777344 58.445312 109.527344 58.445312 L 108.007812 58.414062 C 107.757812 58.40625 107.503906 58.410156 107.253906 58.390625 L 106.496094 58.328125 C 105.488281 58.234375 104.480469 58.179688 103.484375 57.988281 L 101.992188 57.738281 C 101.492188 57.660156 101.007812 57.519531 100.515625 57.410156 L 99.042969 57.0625 C 98.558594 56.933594 98.082031 56.761719 97.601562 56.613281 L 96.167969 56.148438 C 95.699219 55.972656 95.234375 55.78125 94.769531 55.597656 C 94.304688 55.410156 93.835938 55.226562 93.375 55.035156 C 92.925781 54.820312 92.476562 54.59375 92.03125 54.375 L 90.691406 53.714844 C 90.253906 53.476562 89.824219 53.222656 89.394531 52.972656 L 88.117188 52.210938 C 87.691406 51.957031 87.296875 51.660156 86.882812 51.386719 C 86.070312 50.828125 85.25 50.28125 84.496094 49.648438 L 83.347656 48.730469 L 82.777344 48.265625 C 82.589844 48.105469 82.414062 47.9375 82.234375 47.769531 C 81.523438 47.101562 80.792969 46.457031 80.105469 45.769531 L 78.121094 43.640625 L 77.886719 43.382812 C 77.878906 43.375 77.875 43.371094 77.867188 43.363281 L 77.648438 43.09375 L 77.1875 42.53125 C 76.886719 42.15625 70.886719 35.457031 69.734375 34.507812 L 69.046875 33.949219 L 68.707031 33.667969 L 68.378906 33.375 L 67.074219 32.183594 L 65.78125 30.988281 C 65.359375 30.582031 64.964844 30.144531 64.554688 29.722656 L 63.347656 28.449219 L 62.75 27.808594 L 62.183594 27.140625 C 62.175781 27.125 62.164062 27.113281 62.15625 27.101562 C 61.820312 26.691406 62.339844 26.144531 62.769531 26.453125 C 62.777344 26.460938 62.785156 26.46875 62.796875 26.472656 L 63.488281 26.992188 L 64.207031 27.476562 L 65.628906 28.449219 C 66.101562 28.773438 66.566406 29.105469 67.042969 29.421875 L 68.5 30.328125 L 69.941406 31.242188 L 70.289062 31.464844 C 70.296875 31.46875 70.300781 31.472656 70.308594 31.476562 L 70.671875 31.679688 L 71.414062 32.101562 C 75.332031 34.382812 79.371094 36.378906 83.550781 37.9375 C 91.890625 41.097656 100.6875 42.703125 109.507812 42.667969 C 118.320312 42.628906 127.148438 41.035156 135.519531 37.9375 C 143.90625 34.851562 151.808594 30.320312 159.003906 24.425781 "/></g></g></svg>